<svg xmlns="http://www.w3.org/2000/svg" width="235" height="82" viewBox="0 0 235 82" fill="none" class="icon-full"><path d="M215.512 66.045C203.827 66.045 195.979 59.3303 195.543 49.6508H206.269C206.53 53.0517 210.106 56.7142 215.512 56.7142C219.873 56.7142 222.925 54.7958 222.925 52.0052C222.925 49.6508 221.093 48.2555 218.041 47.6451L210.978 46.1626C204.002 44.6802 197.636 41.2792 197.636 32.3845C197.636 25.321 204.089 19.3912 214.553 19.3912C224.407 19.3912 232.081 24.7978 233.215 33.7797H222.489C221.965 30.1172 218.216 28.1987 214.553 28.1987C211.065 28.1987 208.536 29.7684 208.536 32.3845C208.536 34.5646 210.455 35.8726 213.419 36.483L220.483 37.9655C228.157 39.5352 234.087 42.5001 234.087 51.7436C234.087 59.5919 226.674 66.045 215.512 66.045Z" fill="currentColor"></path><path d="M148.864 81.7329V20.0888H159.852V25.4082C162.294 21.8329 167.351 19.3912 173.281 19.3912C186.187 19.3912 194.472 28.9836 194.472 42.6745C194.472 56.4526 185.664 66.045 172.496 66.045C167.177 66.045 162.381 63.9521 159.852 60.7256V81.7329H148.864ZM171.275 56.5398C178.339 56.5398 183.222 51.046 183.222 42.6745C183.222 34.3902 178.339 28.8964 171.275 28.8964C164.038 28.8964 159.154 34.3902 159.154 42.6745C159.154 51.046 164.038 56.5398 171.275 56.5398Z" fill="currentColor"></path><path d="M122.894 56.6223C109.465 56.6223 99.7856 46.7683 99.7856 33.2518C99.7856 19.8225 109.465 9.96851 122.894 9.96851C136.237 9.96851 146.003 19.8225 146.003 33.2518C146.003 46.7683 136.237 56.6223 122.894 56.6223ZM122.894 47.1171C129.958 47.1171 134.841 41.4489 134.841 33.2518C134.841 25.0547 129.871 19.4737 122.894 19.4737C115.657 19.4737 111.035 25.1419 111.035 33.2518C111.035 41.4489 115.657 47.1171 122.894 47.1171Z" fill="currentColor"></path><path d="M97.7468 30.1172C96.4388 29.8556 95.0435 29.594 93.3867 29.594C87.0208 29.594 81.091 35.0878 81.091 48.6915V65.3474H70.1034V20.0888H81.091V31.716C82.2343 22.7314 89.2009 19.3912 94.6947 19.3912C96.0028 19.3912 96.8748 19.4784 97.7468 19.6528V30.1172Z" fill="currentColor"></path><path d="M52.3582 65.3474V20.0888H63.3458V65.3474H52.3582ZM57.7615 14.7086C53.7072 14.7086 50.5015 11.5029 50.5015 7.35429C50.5015 3.20571 53.7072 0 57.7615 0C61.9101 0 65.1158 3.20571 65.1158 7.35429C65.1158 11.5029 61.9101 14.7086 57.7615 14.7086Z" fill="currentColor"></path><path d="M21.6264 66.045C8.10991 66.045 0 56.4526 0 42.6745C0 28.8964 8.19712 19.3912 21.452 19.3912C27.033 19.3912 31.9164 21.7457 34.5325 25.2338V20.0888H45.5202V65.3474H34.5325V60.028C32.4397 63.4289 27.4691 66.045 21.6264 66.045ZM23.1961 56.5398C30.434 56.5398 35.2302 51.046 35.2302 42.6745C35.2302 34.3902 30.434 28.8964 23.1961 28.8964C15.9582 28.8964 11.162 34.3902 11.162 42.6745C11.162 50.9588 15.9582 56.5398 23.1961 56.5398Z" fill="currentColor"></path></svg>